<?xml version="1.0" encoding="utf-8"?>
<!-- Generator: Adobe Illustrator 22.1.0, SVG Export Plug-In . SVG Version: 6.00 Build 0)  -->
<svg version="1.1" id="Layer_1" xmlns="http://www.w3.org/2000/svg" xmlns:xlink="http://www.w3.org/1999/xlink" x="0px" y="0px"
	 viewBox="0 0 170.7 172" style="enable-background:new 0 0 170.7 172;" xml:space="preserve">
<style type="text/css">
	.st0{fill:#FFFFFF;}
</style>
<g>
	<path class="st0" d="M172.8,173c-57.2,0-114.5,0-171.8,0C1,115.7,1,58.5,1,1.1c57.2,0,114.4,0,171.8,0
		C172.8,58.3,172.8,115.7,172.8,173z M120,171.7c14,0,27.1,0,40.2,0c8.4,0,11.4-3.1,11.4-11.5c0-48.8,0-97.7,0-146.5
		c0-8.4-3-11.5-11.4-11.5c-48.8,0-97.7,0-146.5,0C5.4,2.3,2.3,5.3,2.3,13.6c0,48.8,0,97.7,0,146.5c0,8.7,3,11.6,11.8,11.6
		c24.2,0,48.3,0,72.5,0c1.6,0,3.2-0.2,4.9-0.2c0-21.6,0-42.8,0-64.5c-6,0-11.7-0.1-17.3,0c-3.2,0.1-4.5-1.1-4.4-4.4
		c0.2-6.2,0.2-12.3,0-18.5c-0.1-3.2,1-4.5,4.3-4.4c5.8,0.2,11.5,0.1,17.8,0.1c0-6.3-0.2-11.9,0-17.6c0.5-13.9,4.6-25.9,18.5-32.2
		c10.9-4.9,22.2-3.1,33.4-2c0.9,0.1,2.2,2.3,2.2,3.5c0.2,5.7,0,11.3,0.1,17c0.1,2.8-1,3.8-3.8,3.8c-4.2-0.1-8.3-0.1-12.5,0.1
		c-4.7,0.2-9,2.1-9.5,7.1c-0.6,6.5-0.2,13.2-0.2,20.4c8.4,0,16.4,0,25.1,0c-1.1,8.2-2.2,15.8-3,23.3c-0.3,3.2-1.9,3.8-4.6,3.8
		c-4-0.1-8,0.2-12-0.1c-4.4-0.3-6.2,0.9-6,5.7c0.4,9.3,0.1,18.7,0.1,28C120,150.8,120,160.9,120,171.7z"/>
	<path d="M120,171.7c0-10.8,0-21,0-31.1c0-9.3,0.3-18.7-0.1-28c-0.2-4.8,1.6-6.1,6-5.7c4,0.3,8,0,12,0.1c2.7,0.1,4.3-0.6,4.6-3.8
		c0.8-7.6,1.9-15.1,3-23.3c-8.7,0-16.7,0-25.1,0c0-7.2-0.5-13.9,0.2-20.4c0.5-5.1,4.8-6.9,9.5-7.1c4.2-0.2,8.3-0.2,12.5-0.1
		c2.8,0.1,3.9-0.9,3.8-3.8c-0.1-5.7,0.1-11.3-0.1-17c-0.1-1.2-1.4-3.4-2.2-3.5c-11.2-1-22.6-2.9-33.4,2c-13.8,6.3-18,18.3-18.5,32.2
		c-0.2,5.6,0,11.3,0,17.6c-6.3,0-12,0.1-17.8-0.1c-3.3-0.1-4.4,1.1-4.3,4.4c0.2,6.2,0.2,12.3,0,18.5c-0.1,3.3,1.2,4.5,4.4,4.4
		c5.6-0.1,11.3,0,17.3,0c0,21.7,0,42.9,0,64.5c-1.7,0.1-3.3,0.2-4.9,0.2c-24.2,0-48.3,0-72.5,0c-8.8,0-11.8-2.9-11.8-11.6
		c0-48.8,0-97.7,0-146.5c0-8.3,3.1-11.4,11.5-11.4c48.8,0,97.7,0,146.5,0c8.3,0,11.4,3.1,11.4,11.5c0,48.8,0,97.7,0,146.5
		c0,8.4-3.1,11.4-11.4,11.5C147.1,171.8,134,171.7,120,171.7z"/>
</g>
</svg>
