<?xml version="1.0" encoding="iso-8859-1"?>
<!-- Generator: Adobe Illustrator 18.0.0, SVG Export Plug-In . SVG Version: 6.00 Build 0)  -->
<!DOCTYPE svg PUBLIC "-//W3C//DTD SVG 1.1//EN" "http://www.w3.org/Graphics/SVG/1.1/DTD/svg11.dtd">
<svg version="1.1" id="Capa_1" xmlns="http://www.w3.org/2000/svg" xmlns:xlink="http://www.w3.org/1999/xlink" x="0px" y="0px"
	 viewBox="0 0 297 297" style="enable-background:new 0 0 297 297;" xml:space="preserve">
<path d="M238.979,56.947c1.378-3.824,2.134-7.944,2.134-12.237v-8.516C241.113,16.236,224.877,0,204.919,0H92.081
	C72.123,0,55.887,16.236,55.887,36.194v8.516c0,4.293,0.756,8.413,2.134,12.237c-11.973,5.91-20.23,18.242-20.23,32.473v171.387
	C37.79,280.764,54.026,297,73.984,297h149.032c19.958,0,36.194-16.236,36.194-36.194V89.419
	C259.21,75.189,250.952,62.856,238.979,56.947z M223.016,80.903c4.696,0,8.516,3.82,8.516,8.516v56.401
	c-39.402-0.324-59.293-5.144-80.304-10.237c-21.487-5.21-43.689-10.586-85.76-11.006V89.419c0-4.696,3.82-8.516,8.516-8.516H223.016
	z M83.565,36.194c0-4.617,3.899-8.516,8.516-8.516h112.839c4.617,0,8.516,3.899,8.516,8.516v8.516c0,4.617-3.899,8.516-8.516,8.516
	H92.081c-4.617,0-8.516-3.899-8.516-8.516V36.194z M223.016,269.323H73.984c-4.696,0-8.516-3.82-8.516-8.516v-108.55
	c38.691,0.402,58.42,5.178,79.24,10.225c21.67,5.254,44.054,10.68,86.825,11.018v87.307
	C231.532,265.502,227.712,269.323,223.016,269.323z"/>
<g>
</g>
<g>
</g>
<g>
</g>
<g>
</g>
<g>
</g>
<g>
</g>
<g>
</g>
<g>
</g>
<g>
</g>
<g>
</g>
<g>
</g>
<g>
</g>
<g>
</g>
<g>
</g>
<g>
</g>
</svg>
