<?xml version="1.0" encoding="iso-8859-1"?>
<!-- Generator: Adobe Illustrator 21.0.0, SVG Export Plug-In . SVG Version: 6.00 Build 0)  -->
<svg xmlns="http://www.w3.org/2000/svg" xmlns:xlink="http://www.w3.org/1999/xlink" version="1.1" id="Capa_1" x="0px" y="0px" viewBox="0 0 511.999 511.999" style="enable-background:new 0 0 511.999 511.999;" xml:space="preserve" width="512px" height="512px">
<g>
	<path d="M9.394,442.075c40.446,16.322,80.01,22.586,128.277,15.661c32.86,25.208,73.812,40.369,118.33,40.369   c44.172,0,84.825-14.938,117.557-39.791c46.351,6.744,87.136,1.432,129.005-15.317c7.236-2.9,11.045-10.825,8.789-18.281   c-12.486-41.215-34.056-77.549-61.082-107.208c0.352-4.774,0.731-9.542,0.731-14.403c0-75.87-43.651-141.595-107.073-173.815   c-14.191-42.136-40.41-80.052-78.01-111.859c-5.552-4.702-13.74-4.717-19.321-0.044c-37.89,31.78-64.33,69.73-78.664,111.973   C104.587,161.603,61,227.292,61,303.105c0,4.625,0.375,9.157,0.694,13.702C34.778,346.368,13.295,382.612,0.663,423.75   C-1.622,431.206,2.172,439.16,9.394,442.075z M256,468.105c-28.154,0-54.666-7.119-77.88-19.603   c28.162-8.923,54.294-22.451,77.309-39.957c23.047,17.682,49.259,31.364,77.527,40.402C309.958,461.133,283.79,468.105,256,468.105   z M194.814,270.718c39.067-10.049,82.822-9.976,121.816,0.161c-11.558,37.998-32.915,71.763-61.128,98.335   C227.436,342.539,206.225,308.745,194.814,270.718z M478.144,419.971c-30.775,10.126-50.666,11.376-74.916,10.604   c18.333-21.145,32.168-46.21,40.089-73.813C457.18,375.641,469.637,396.788,478.144,419.971z M353.486,170.286   c37.531,27.621,62.963,70.624,66.85,119.711c-20.389-16.252-43.046-29.709-68.051-39.216c2.651-14.692,4.028-29.824,4.028-45.278   C356.313,193.508,355.159,181.82,353.486,170.286z M345.151,280.225c28.054,11.199,52.678,27.803,73.665,48.424   c-6.03,38.533-25.364,72.621-53.24,97.478c-31.829-6.486-61.428-19.211-86.856-37.621   C309.218,358.931,332.377,321.826,345.151,280.225z M256.205,48.896c21.493,19.964,37.857,42.023,49.492,65.87   c-15.899-4.2-32.496-6.661-49.697-6.661c-17.065,0-33.538,2.428-49.323,6.566C218.48,90.743,234.91,68.591,256.205,48.896z    M193.027,150.657c19.42-8.053,40.675-12.552,62.974-12.552c22.328,0,43.61,4.506,63.051,12.579   c4.653,17.476,7.262,35.695,7.262,54.818c0,12.29-0.996,24.36-2.9,36.123c-21.797-5.581-44.604-8.525-68.027-8.525   c-23.13,0-45.674,2.871-67.236,8.335c-1.816-11.499-2.769-23.291-2.769-35.288C185.38,186.945,188.138,168.453,193.027,150.657z    M232.211,388.418c-25.334,18.184-54.772,30.743-86.411,37.139c-27.691-24.946-46.842-59.044-52.712-97.546   c20.792-20.46,45.198-36.929,73.191-48.021C178.891,321.606,201.874,358.755,232.211,388.418z M158.279,170.464   c-1.716,11.682-2.899,23.522-2.899,35.684c0,15.132,1.318,29.956,3.867,44.37c-24.875,9.384-47.338,22.681-67.546,38.738   C95.776,240.579,121.064,197.953,158.279,170.464z M68.553,356.261c7.819,27.524,21.484,52.553,39.655,73.693   c-23.676,0.725-42.658-0.317-74.308-10.833C42.459,396.064,54.83,375.038,68.553,356.261z" fill="#FFFFFF"/>
</g>















</svg>
