<?xml version="1.0" encoding="iso-8859-1"?>
<!-- Generator: Adobe Illustrator 21.0.0, SVG Export Plug-In . SVG Version: 6.00 Build 0)  -->
<svg xmlns="http://www.w3.org/2000/svg" xmlns:xlink="http://www.w3.org/1999/xlink" version="1.1" id="Capa_1" x="0px" y="0px" viewBox="0 0 512.138 512.138" style="enable-background:new 0 0 512.138 512.138;" xml:space="preserve" width="512px" height="512px">
<g>
	<path d="M457.872,280.586c-20.622-11.627-43.678-15.204-64.921-10.071c-23.778,5.746-43.88,21.831-58.131,46.516   c-14.169,24.542-14.585,51.973-1.14,75.26c13.387,23.187,38.811,38.765,63.265,38.765c19.575,0,36.581-10.011,46.658-27.466   c18.877-32.695,6.45-59.384-14.24-71.33c-7.174-4.142-16.349-1.684-20.49,5.49c-4.142,7.174-1.685,16.349,5.49,20.491   c10.343,5.972,11.439,16.183,3.26,30.35c-4.776,8.271-11.733,12.466-20.677,12.466c-13.874,0-29.206-9.772-37.284-23.765   c-5.701-9.874-10.13-25.74,1.14-45.26c23.063-39.947,58.768-38.601,82.337-25.313c33.369,18.815,53.287,63.043,26.792,111.171   c-30.492,55.385-79.516,49.712-99.176,44.702c-12.224-3.115-23.581-8.235-33.57-14.782c-0.482-0.418-0.985-0.819-1.531-1.181   c-2.268-1.504-4.473-3.086-6.631-4.724c-19.985-15.952-32.724-37.961-32.818-60.204l0-0.359c0-38.415,18.285-74.857,37.644-113.439   c19.307-38.479,39.271-78.269,40.754-121.791c0-0.002,0-0.005,0-0.008c0.76-15.134-0.893-30.467-4.992-45.044   c-6.992-24.865-20.555-45.881-39.225-60.776c-20.977-16.736-48.16-25.253-78.567-24.635   c-73.627,1.5-112.796,57.324-112.269,109.088c0.241,23.673,8.672,45.428,23.739,61.258c16.866,17.719,40.847,27.085,69.35,27.085   c29.521,0,47.529-13.582,57.438-24.975c12.042-13.847,18.948-32.641,18.948-51.562c0-15.811-4.814-30.509-13.556-41.387   c-10.139-12.617-25.147-19.565-42.259-19.565c-37.754,0-54.653,24.106-54.653,47.998c0,8.284,6.716,15,15,15s15-6.716,15-15   c0-11.942,8.294-17.998,24.653-17.998c24.57,0,25.814,25.784,25.814,30.953c0,11.791-4.223,23.409-11.585,31.875   c-8.341,9.591-20.375,14.661-34.8,14.661c-46.126,0-62.814-31.594-63.09-58.649c-0.39-38.306,27.954-77.67,82.881-78.788   c63.223-1.277,82.809,44.005,88.301,63.538c3.179,11.308,4.471,22.833,4.092,33.994c-0.102,0.627-0.18,1.264-0.202,1.916   c-0.069,2.032-0.196,4.058-0.362,6.08c-2.931,27.146-15.947,51.149-36.268,62.997l-0.348,0.202   c-33.364,19.263-72.752,22.568-114.452,26.068c-36.695,3.08-74.634,6.267-109.194,21.161   c-18.582,7.196-35.821,18.489-49.789,32.805C16.167,312.89,4.748,335.144,1.183,358.76c-4.005,26.534,2.202,54.322,17.949,80.358   c24.462,40.445,61.198,57.406,96.166,57.403c19.512-0.002,38.48-5.286,54.441-14.719c20.381-12.045,35.007-30.224,41.182-51.188   c6.913-23.466,3.034-48.917-11.218-73.601c-24.808-42.968-72.344-46.435-104.475-27.884c-13.693,7.906-24.015,19.424-29.064,32.433   c-5.857,15.089-4.371,31.561,4.185,46.38c11.138,19.291,24.708,26.193,34.131,28.585c11.494,2.918,23.84,1.053,34.763-5.253   c7.174-4.142,9.632-13.316,5.49-20.491c-4.142-7.173-13.314-9.633-20.491-5.49c-2.381,1.375-7.154,3.483-12.378,2.157   c-6.932-1.761-12.273-8.862-15.534-14.509c-12.285-21.278,9.422-35.248,13.898-37.833c19.411-11.207,47.559-10.696,63.495,16.903   c23.063,39.946,4.046,70.196-19.247,83.962c-32.979,19.492-81.241,14.626-109.673-32.383c-32.72-54.098-3.294-93.717,10.875-108.24   c11.004-11.278,24.039-19.821,37.644-25.336c0.769-0.196,1.535-0.435,2.286-0.761c0.854-0.37,1.712-0.729,2.571-1.083   c22.71-7.926,46.514-7.408,64.812,3.054l0.327,0.188c33.206,19.171,54.425,52.516,76.89,87.818   c21.488,33.768,43.708,68.666,77.855,91.709c0.263,0.182,0.529,0.36,0.793,0.541c0.072,0.048,0.142,0.098,0.214,0.146   c0.018,0.012,0.036,0.021,0.054,0.032c13.422,9.12,28.496,15.995,44.222,20.002c10.52,2.681,21.028,4.016,31.331,4.016   c14.21,0,28.026-2.542,40.915-7.597c24.982-9.799,45.943-29.068,60.619-55.724C531.726,367.845,502.964,306.012,457.872,280.586z" fill="#FFFFFF"/>
</g>















</svg>
